<svg width="42" height="41" viewBox="0 0 42 41" fill="none" xmlns="http://www.w3.org/2000/svg">
<path fill-rule="evenodd" clip-rule="evenodd" d="M21 31.25C27.0751 31.25 32 26.437 32 20.5C32 14.5629 27.0751 9.75 21 9.75C14.9249 9.75 10 14.5629 10 20.5C10 26.437 14.9249 31.25 21 31.25ZM21 27.6667C25.05 27.6667 28.3333 24.458 28.3333 20.5C28.3333 16.542 25.05 13.3333 21 13.3333C16.9499 13.3333 13.6667 16.542 13.6667 20.5C13.6667 24.458 16.9499 27.6667 21 27.6667Z" fill="#E1E7E8"/>
<path d="M32.0003 7.95801C30.9878 7.95801 30.167 8.76017 30.167 9.74967C30.167 10.7392 30.9878 11.5413 32.0003 11.5413C33.0129 11.5413 33.8337 10.7392 33.8337 9.74967C33.8337 8.76017 33.0129 7.95801 32.0003 7.95801Z" fill="#E1E7E8"/>
<path fill-rule="evenodd" clip-rule="evenodd" d="M2.03242 6.66111C0.833496 8.96066 0.833496 11.9709 0.833496 17.9915V23.0082C0.833496 29.0287 0.833496 32.0391 2.03242 34.3385C3.08703 36.3613 4.76981 38.0059 6.83961 39.0364C9.19264 40.2082 12.2729 40.2082 18.4335 40.2082H23.5668C29.7274 40.2082 32.8077 40.2082 35.1606 39.0364C37.2305 38.0059 38.9133 36.3613 39.9678 34.3385C41.1668 32.0391 41.1668 29.0287 41.1668 23.0082V17.9915C41.1668 11.9709 41.1668 8.96066 39.9678 6.66111C38.9133 4.63836 37.2305 2.99382 35.1606 1.96318C32.8077 0.791504 29.7274 0.791504 23.5668 0.791504H18.4335C12.2729 0.791504 9.19264 0.791504 6.83961 1.96318C4.76981 2.99382 3.08703 4.63836 2.03242 6.66111ZM23.5668 4.37484H18.4335C15.2927 4.37484 13.1576 4.37763 11.5073 4.50939C9.89977 4.63775 9.0777 4.87039 8.50424 5.15595C7.12438 5.84305 6.00253 6.93941 5.29944 8.28791C5.00724 8.84834 4.76919 9.65173 4.63785 11.2227C4.50302 12.8355 4.50016 14.9221 4.50016 17.9915V23.0082C4.50016 26.0777 4.50302 28.1641 4.63785 29.7769C4.76919 31.348 5.00724 32.1514 5.29944 32.7118C6.00253 34.0602 7.12438 35.1566 8.50424 35.8437C9.0777 36.1293 9.89977 36.362 11.5073 36.4903C13.1576 36.622 15.2927 36.6248 18.4335 36.6248H23.5668C26.7077 36.6248 28.8426 36.622 30.493 36.4903C32.1006 36.362 32.9227 36.1293 33.4962 35.8437C34.8759 35.1566 35.9977 34.0602 36.7008 32.7118C36.9931 32.1514 37.2312 31.348 37.3625 29.7769C37.4972 28.1641 37.5002 26.0777 37.5002 23.0082V17.9915C37.5002 14.9221 37.4972 12.8355 37.3625 11.2227C37.2312 9.65173 36.9931 8.84834 36.7008 8.28791C35.9977 6.93941 34.8759 5.84305 33.4962 5.15595C32.9227 4.87039 32.1006 4.63775 30.493 4.50939C28.8426 4.37763 26.7077 4.37484 23.5668 4.37484Z" fill="#E1E7E8"/>
</svg>
