<svg width="344" height="120" viewBox="0 0 344 120" fill="none" xmlns="http://www.w3.org/2000/svg">
<path d="M1 22.8043V91.4239H90.1413L89.5 73.4674H69.6196V66.413H86.9348V54.2283H69.6196V47.1739H88.8587L99.1196 91.4239H120.924L131.826 51.0217V91.4239H243.413V54.2283H219.043V73.4674H200.446V24.7283H120.924L110.022 73.4674L99.1196 24.7283H44.6087V73.4674H24.087V22.8043H1Z" fill="#644478"/>
<path d="M219.043 47.1739V24.7283H249.185L262.011 56.1522V24.7283H287.663V57.1141V91.4239H262.011L243.413 47.1739H219.043Z" fill="#644478"/>
<path d="M265.217 1C262.139 1 262.011 3.56522 262.011 4.84783V12.5435V18.3152V20.2391H287.663H311.391C312.674 20.2391 312.674 22.3768 312.674 22.8043V37.5543H335.12V3.56522C335.12 1.51304 333.837 1 333.196 1H265.217Z" fill="#644478"/>
<path d="M262.011 117.717V96.5543L287.663 97.1956H310.75C311.776 97.1956 312.261 96.1686 312.376 95.655V76.3754H304.337V65.7717L323.576 40.7609L342.815 65.7717V76.3754H333.837V116.435C333.837 118.487 331.911 119 330.948 119H263.293C262.267 119 262.011 118.145 262.011 117.717Z" fill="#644478"/>
<path d="M1 22.8043V91.4239H90.1413L89.5 73.4674H69.6196V66.413H86.9348V54.2283H69.6196V47.1739H88.8587L99.1196 91.4239H120.924L131.826 51.0217V91.4239H243.413V54.2283H219.043V73.4674H200.446V24.7283H120.924L110.022 73.4674L99.1196 24.7283H44.6087V73.4674H24.087V22.8043H1Z" stroke="#644478" stroke-width="0.5"/>
<path d="M219.043 47.1739V24.7283H249.185L262.011 56.1522V24.7283H287.663V57.1141V91.4239H262.011L243.413 47.1739H219.043Z" stroke="#644478" stroke-width="0.5"/>
<path d="M265.217 1C262.139 1 262.011 3.56522 262.011 4.84783V12.5435V18.3152V20.2391H287.663H311.391C312.674 20.2391 312.674 22.3768 312.674 22.8043V37.5543H335.12V3.56522C335.12 1.51304 333.837 1 333.196 1H265.217Z" stroke="#644478" stroke-width="0.5"/>
<path d="M262.011 117.717V96.5543L287.663 97.1956H310.75C311.776 97.1956 312.261 96.1686 312.376 95.655V76.3754H304.337V65.7717L323.576 40.7609L342.815 65.7717V76.3754H333.837V116.435C333.837 118.487 331.911 119 330.948 119H263.293C262.267 119 262.011 118.145 262.011 117.717Z" stroke="#644478" stroke-width="0.5"/>
<path d="M173.511 54.2283H157.478V47.174H175.435V72.8261H157.478V67.6957H173.511V54.2283Z" fill="#F2A007"/>
<path d="M173.511 67.6957V54.2283H157.478V47.174H175.435V72.8261H157.478V67.6957H173.511ZM173.511 67.6957V54.0331" stroke="#F2A007" stroke-width="0.5"/>
<path d="M265.217 1C262.139 1 262.011 3.56522 262.011 4.84783V12.5435V18.3152V20.2391H287.663H311.391C312.674 20.2391 312.674 22.3768 312.674 22.8043V37.5543H335.119V3.56522C335.119 1.51304 333.837 1 333.196 1H265.217Z" fill="#F2A007"/>
<path d="M262.011 117.717V96.5543L287.663 97.1956H310.75C311.776 97.1956 312.261 96.1686 312.376 95.655V76.3753H304.337V65.7717L323.576 40.7609L342.815 65.7717V76.3753H333.837V116.435C333.837 118.487 331.911 119 330.948 119H263.293C262.267 119 262.011 118.145 262.011 117.717Z" fill="#F2A007"/>
<path d="M265.217 1C262.139 1 262.011 3.56522 262.011 4.84783V12.5435V18.3152V20.2391H287.663H311.391C312.674 20.2391 312.674 22.3768 312.674 22.8043V37.5543H335.119V3.56522C335.119 1.51304 333.837 1 333.196 1H265.217Z" stroke="#F2A007" stroke-width="0.5"/>
<path d="M262.011 117.717V96.5543L287.663 97.1956H310.75C311.776 97.1956 312.261 96.1686 312.376 95.655V76.3753H304.337V65.7717L323.576 40.7609L342.815 65.7717V76.3753H333.837V116.435C333.837 118.487 331.911 119 330.948 119H263.293C262.267 119 262.011 118.145 262.011 117.717Z" stroke="#F2A007" stroke-width="0.5"/>
<path d="M225.457 94.6304V119H234.435H243.413L238.283 106.815L243.413 94.6304H225.457Z" fill="#F2A007"/>
<path d="M199.804 119H219.685L213.913 106.815H219.685V94.6304H199.804V119Z" fill="#F2A007"/>
<path d="M193.391 119V94.6304H174.152V119H193.391Z" fill="#F2A007"/>
<path d="M167.739 119V94.6304H161.326V106.815L158.12 94.6304L154.913 106.815V94.6304H148.5V119H167.739Z" fill="#F2A007"/>
<path d="M225.457 94.6304V119H234.435H243.413L238.283 106.815L243.413 94.6304H225.457Z" stroke="#F2A007"/>
<path d="M199.804 119H219.685L213.913 106.815H219.685V94.6304H199.804V119Z" stroke="#F2A007"/>
<path d="M193.391 119V94.6304H174.152V119H193.391Z" stroke="#F2A007"/>
<path d="M167.739 119V94.6304H161.326V106.815L158.12 94.6304L154.913 106.815V94.6304H148.5V119H167.739Z" stroke="#F2A007"/>
</svg>
