<svg width="40" height="40" viewBox="0 0 40 40" fill="none" xmlns="http://www.w3.org/2000/svg">
<path d="M29.5981 22.9844C29.5202 22.947 26.6041 21.511 26.0859 21.3245C25.8743 21.2486 25.6477 21.1744 25.4067 21.1744C25.0129 21.1744 24.6821 21.3706 24.4245 21.7561C24.1332 22.1891 23.2513 23.2199 22.9789 23.5278C22.9433 23.5684 22.8947 23.617 22.8656 23.617C22.8395 23.617 22.3882 23.4312 22.2516 23.3718C19.1234 22.013 16.749 18.7453 16.4234 18.1943C16.3769 18.115 16.375 18.0791 16.3746 18.0791C16.386 18.0371 16.4912 17.9317 16.5455 17.8773C16.7043 17.7201 16.8764 17.513 17.0429 17.3126C17.1217 17.2176 17.2007 17.1226 17.2782 17.033C17.5198 16.7519 17.6273 16.5337 17.752 16.281L17.8173 16.1497C18.1217 15.5449 17.8617 15.0345 17.7777 14.8697C17.7087 14.7318 16.4774 11.7601 16.3465 11.4479C16.0317 10.6945 15.6158 10.3438 15.0377 10.3438C14.9841 10.3438 15.0377 10.3437 14.8128 10.3532C14.5389 10.3648 13.0473 10.5612 12.3878 10.9769C11.6885 11.4178 10.5054 12.8232 10.5054 15.2949C10.5054 17.5195 11.9171 19.6199 12.5232 20.4187C12.5382 20.4388 12.5659 20.4797 12.606 20.5384C14.9272 23.9283 17.8208 26.4405 20.7542 27.6123C23.5782 28.7404 24.9155 28.8708 25.6758 28.8708H25.6759C25.9954 28.8708 26.2511 28.8457 26.4767 28.8235L26.6198 28.8099C27.5954 28.7234 29.7393 27.6125 30.2269 26.2573C30.6111 25.1899 30.7124 24.0236 30.4568 23.6004C30.2817 23.3126 29.98 23.1678 29.5981 22.9844Z" fill="#E1E7E8"/>
<path d="M20.355 0C9.52179 0 0.708281 8.74727 0.708281 19.4991C0.708281 22.9766 1.63893 26.3806 3.40192 29.3599L0.0275023 39.3138C-0.0353548 39.4994 0.0113984 39.7045 0.148671 39.8443C0.247762 39.9455 0.382178 40 0.51945 40C0.572048 40 0.625035 39.9921 0.676723 39.9756L11.0559 36.6774C13.8962 38.1949 17.1063 38.996 20.3552 38.996C31.1874 38.9961 40 30.2497 40 19.4991C40 8.74727 31.1874 0 20.355 0ZM20.355 34.9343C17.298 34.9343 14.3371 34.0516 11.7919 32.3814C11.7063 32.3252 11.607 32.2964 11.507 32.2964C11.4541 32.2964 11.4011 32.3044 11.3496 32.3208L6.15023 33.9735L7.82867 29.0217C7.88296 28.8614 7.85581 28.6847 7.75581 28.5481C5.81763 25.8997 4.79309 22.7708 4.79309 19.4991C4.79309 10.987 11.7741 4.06182 20.3549 4.06182C28.9346 4.06182 35.9149 10.987 35.9149 19.4991C35.915 28.0101 28.9349 34.9343 20.355 34.9343Z" fill="#E1E7E8"/>
</svg>
